<?xml version="1.0" encoding="UTF-8" standalone="no"?>
<svg width="101px" height="27px" viewBox="0 0 101 27" version="1.1" xmlns="http://www.w3.org/2000/svg" xmlns:xlink="http://www.w3.org/1999/xlink" xmlns:sketch="http://www.bohemiancoding.com/sketch/ns">
    <!-- Generator: Sketch 3.3.3 (12081) - http://www.bohemiancoding.com/sketch -->
    <title>owo</title>
    <desc>Created with Sketch.</desc>
    <defs></defs>
    <g id="Page-1" stroke="none" stroke-width="1" fill="none" fill-rule="evenodd" sketch:type="MSPage">
        <path d="M14.65625,26.46875 C12.65624,26.46875 10.804696,26.1406283 9.1015625,25.484375 C7.39842898,24.8281217 5.92969367,23.925787 4.6953125,22.7773438 C3.46093133,21.6289005 2.49609723,20.2734453 1.80078125,18.7109375 C1.10546527,17.1484297 0.7578125,15.468759 0.7578125,13.671875 C0.7578125,11.7343653 1.10546527,9.94922691 1.80078125,8.31640625 C2.49609723,6.68358559 3.46093133,5.27734965 4.6953125,4.09765625 C5.92969367,2.91796285 7.39452277,1.99609707 9.08984375,1.33203125 C10.7851647,0.66796543 12.6328025,0.3359375 14.6328125,0.3359375 C16.6328225,0.3359375 18.4882727,0.660153008 20.1992188,1.30859375 C21.9101648,1.95703449 23.3867125,2.8515568 24.6289062,3.9921875 C25.8711,5.1328182 26.8437465,6.46874234 27.546875,8 C28.2500035,9.53125766 28.6015625,11.1796787 28.6015625,12.9453125 C28.6015625,14.8046968 28.2500035,16.5546793 27.546875,18.1953125 C26.8437465,19.8359457 25.8711,21.2695251 24.6289062,22.4960938 C23.3867125,23.7226624 21.914071,24.6914027 20.2109375,25.4023438 C18.507804,26.1132848 16.65626,26.46875 14.65625,26.46875 L14.65625,26.46875 Z M15.546875,23.3984375 C16.2500035,23.3984375 16.8945283,23.1718773 17.4804688,22.71875 C18.0664092,22.2656227 18.5703104,21.6562538 18.9921875,20.890625 C19.4140646,20.1249962 19.7460925,19.2421925 19.9882812,18.2421875 C20.23047,17.2421825 20.3515625,16.195318 20.3515625,15.1015625 C20.3515625,13.4921795 20.2343762,11.9765696 20,10.5546875 C19.7656238,9.13280539 19.3789089,7.89063031 18.8398438,6.828125 C18.3007786,5.76561969 17.5976606,4.92187812 16.7304688,4.296875 C15.8632769,3.67187188 14.8046938,3.359375 13.5546875,3.359375 C12.9609345,3.359375 12.3867215,3.58202902 11.8320312,4.02734375 C11.277341,4.47265848 10.7890646,5.07030875 10.3671875,5.8203125 C9.94531039,6.57031625 9.60547004,7.43749508 9.34765625,8.421875 C9.08984246,9.40625492 8.9609375,10.4374946 8.9609375,11.515625 C8.9609375,13.1406331 9.10937352,14.6718678 9.40625,16.109375 C9.70312648,17.5468822 10.1367159,18.8046821 10.7070312,19.8828125 C11.2773466,20.9609429 11.9687459,21.8164031 12.78125,22.4492188 C13.5937541,23.0820344 14.5156198,23.3984375 15.546875,23.3984375 L15.546875,23.3984375 Z M38.375,0.3828125 L45.0078125,15.59375 L51.546875,0.21875 L53.0703125,0.21875 L59.7265625,15.3828125 L66.171875,0.3828125 L71.140625,0.3828125 L59.890625,26.5625 L56.375,26.5625 L50.890625,13.9296875 L45.4765625,26.5625 L41.7265625,26.5625 L30.359375,0.3828125 L38.375,0.3828125 Z M86.796875,26.46875 C84.796865,26.46875 82.945321,26.1406283 81.2421875,25.484375 C79.539054,24.8281217 78.0703187,23.925787 76.8359375,22.7773438 C75.6015563,21.6289005 74.6367222,20.2734453 73.9414062,18.7109375 C73.2460903,17.1484297 72.8984375,15.468759 72.8984375,13.671875 C72.8984375,11.7343653 73.2460903,9.94922691 73.9414062,8.31640625 C74.6367222,6.68358559 75.6015563,5.27734965 76.8359375,4.09765625 C78.0703187,2.91796285 79.5351478,1.99609707 81.2304688,1.33203125 C82.9257897,0.66796543 84.7734275,0.3359375 86.7734375,0.3359375 C88.7734475,0.3359375 90.6288977,0.660153008 92.3398438,1.30859375 C94.0507898,1.95703449 95.5273375,2.8515568 96.7695312,3.9921875 C98.011725,5.1328182 98.9843715,6.46874234 99.6875,8 C100.390629,9.53125766 100.742188,11.1796787 100.742188,12.9453125 C100.742188,14.8046968 100.390629,16.5546793 99.6875,18.1953125 C98.9843715,19.8359457 98.011725,21.2695251 96.7695312,22.4960938 C95.5273375,23.7226624 94.054696,24.6914027 92.3515625,25.4023438 C90.648429,26.1132848 88.796885,26.46875 86.796875,26.46875 L86.796875,26.46875 Z M87.6875,23.3984375 C88.3906285,23.3984375 89.0351533,23.1718773 89.6210938,22.71875 C90.2070342,22.2656227 90.7109354,21.6562538 91.1328125,20.890625 C91.5546896,20.1249962 91.8867175,19.2421925 92.1289062,18.2421875 C92.371095,17.2421825 92.4921875,16.195318 92.4921875,15.1015625 C92.4921875,13.4921795 92.3750012,11.9765696 92.140625,10.5546875 C91.9062488,9.13280539 91.5195339,7.89063031 90.9804688,6.828125 C90.4414036,5.76561969 89.7382856,4.92187812 88.8710938,4.296875 C88.0039019,3.67187188 86.9453188,3.359375 85.6953125,3.359375 C85.1015595,3.359375 84.5273465,3.58202902 83.9726562,4.02734375 C83.417966,4.47265848 82.9296896,5.07030875 82.5078125,5.8203125 C82.0859354,6.57031625 81.746095,7.43749508 81.4882812,8.421875 C81.2304675,9.40625492 81.1015625,10.4374946 81.1015625,11.515625 C81.1015625,13.1406331 81.2499985,14.6718678 81.546875,16.109375 C81.8437515,17.5468822 82.2773409,18.8046821 82.8476562,19.8828125 C83.4179716,20.9609429 84.1093709,21.8164031 84.921875,22.4492188 C85.7343791,23.0820344 86.6562448,23.3984375 87.6875,23.3984375 L87.6875,23.3984375 Z" id="owo" fill="#FFFFFF" sketch:type="MSShapeGroup"></path>
    </g>
</svg>