<?xml version="1.0" encoding="UTF-8" standalone="no"?>
<svg width="208px" height="57px" viewBox="0 0 208 57" version="1.1" xmlns="http://www.w3.org/2000/svg" xmlns:xlink="http://www.w3.org/1999/xlink" xmlns:sketch="http://www.bohemiancoding.com/sketch/ns">
    <!-- Generator: Sketch 3.3.3 (12081) - http://www.bohemiancoding.com/sketch -->
    <title>logo</title>
    <desc>Created with Sketch.</desc>
    <defs></defs>
    <g id="Page-1" stroke="none" stroke-width="1" fill="none" fill-rule="evenodd" sketch:type="MSPage">
        <g id="logo" sketch:type="MSLayerGroup">
            <path d="M66.8984375,26.25 C64.8984275,26.25 63.0468835,25.9218783 61.34375,25.265625 C59.6406165,24.6093717 58.1718812,23.707037 56.9375,22.5585938 C55.7031188,21.4101505 54.7382847,20.0546953 54.0429688,18.4921875 C53.3476528,16.9296797 53,15.250009 53,13.453125 C53,11.5156153 53.3476528,9.73047691 54.0429688,8.09765625 C54.7382847,6.46483559 55.7031188,5.05859965 56.9375,3.87890625 C58.1718812,2.69921285 59.6367103,1.77734707 61.3320312,1.11328125 C63.0273522,0.44921543 64.87499,0.1171875 66.875,0.1171875 C68.87501,0.1171875 70.7304602,0.441403008 72.4414062,1.08984375 C74.1523523,1.73828449 75.6289,2.6328068 76.8710938,3.7734375 C78.1132875,4.9140682 79.085934,6.24999234 79.7890625,7.78125 C80.492191,9.31250766 80.84375,10.9609287 80.84375,12.7265625 C80.84375,14.5859468 80.492191,16.3359293 79.7890625,17.9765625 C79.085934,19.6171957 78.1132875,21.0507751 76.8710938,22.2773438 C75.6289,23.5039124 74.1562585,24.4726527 72.453125,25.1835938 C70.7499915,25.8945348 68.8984475,26.25 66.8984375,26.25 L66.8984375,26.25 Z M67.7890625,23.1796875 C68.492191,23.1796875 69.1367158,22.9531273 69.7226562,22.5 C70.3085967,22.0468727 70.8124979,21.4375038 71.234375,20.671875 C71.6562521,19.9062462 71.98828,19.0234425 72.2304688,18.0234375 C72.4726575,17.0234325 72.59375,15.976568 72.59375,14.8828125 C72.59375,13.2734295 72.4765637,11.7578196 72.2421875,10.3359375 C72.0078113,8.91405539 71.6210964,7.67188031 71.0820312,6.609375 C70.5429661,5.54686969 69.8398481,4.70312812 68.9726562,4.078125 C68.1054644,3.45312188 67.0468813,3.140625 65.796875,3.140625 C65.203122,3.140625 64.628909,3.36327902 64.0742188,3.80859375 C63.5195285,4.25390848 63.0312521,4.85155875 62.609375,5.6015625 C62.1874979,6.35156625 61.8476575,7.21874508 61.5898438,8.203125 C61.33203,9.18750492 61.203125,10.2187446 61.203125,11.296875 C61.203125,12.9218831 61.351561,14.4531178 61.6484375,15.890625 C61.945314,17.3281322 62.3789034,18.5859321 62.9492188,19.6640625 C63.5195341,20.7421929 64.2109334,21.5976531 65.0234375,22.2304688 C65.8359416,22.8632844 66.7578073,23.1796875 67.7890625,23.1796875 L67.7890625,23.1796875 Z M90.6171875,0.1640625 L97.25,15.375 L103.789062,0 L105.3125,0 L111.96875,15.1640625 L118.414062,0.1640625 L123.382812,0.1640625 L112.132812,26.34375 L108.617188,26.34375 L103.132812,13.7109375 L97.71875,26.34375 L93.96875,26.34375 L82.6015625,0.1640625 L90.6171875,0.1640625 Z M139.039062,26.25 C137.039053,26.25 135.187509,25.9218783 133.484375,25.265625 C131.781241,24.6093717 130.312506,23.707037 129.078125,22.5585938 C127.843744,21.4101505 126.87891,20.0546953 126.183594,18.4921875 C125.488278,16.9296797 125.140625,15.250009 125.140625,13.453125 C125.140625,11.5156153 125.488278,9.73047691 126.183594,8.09765625 C126.87891,6.46483559 127.843744,5.05859965 129.078125,3.87890625 C130.312506,2.69921285 131.777335,1.77734707 133.472656,1.11328125 C135.167977,0.44921543 137.015615,0.1171875 139.015625,0.1171875 C141.015635,0.1171875 142.871085,0.441403008 144.582031,1.08984375 C146.292977,1.73828449 147.769525,2.6328068 149.011719,3.7734375 C150.253912,4.9140682 151.226559,6.24999234 151.929688,7.78125 C152.632816,9.31250766 152.984375,10.9609287 152.984375,12.7265625 C152.984375,14.5859468 152.632816,16.3359293 151.929688,17.9765625 C151.226559,19.6171957 150.253912,21.0507751 149.011719,22.2773438 C147.769525,23.5039124 146.296884,24.4726527 144.59375,25.1835938 C142.890616,25.8945348 141.039072,26.25 139.039062,26.25 L139.039062,26.25 Z M139.929688,23.1796875 C140.632816,23.1796875 141.277341,22.9531273 141.863281,22.5 C142.449222,22.0468727 142.953123,21.4375038 143.375,20.671875 C143.796877,19.9062462 144.128905,19.0234425 144.371094,18.0234375 C144.613282,17.0234325 144.734375,15.976568 144.734375,14.8828125 C144.734375,13.2734295 144.617189,11.7578196 144.382812,10.3359375 C144.148436,8.91405539 143.761721,7.67188031 143.222656,6.609375 C142.683591,5.54686969 141.980473,4.70312812 141.113281,4.078125 C140.246089,3.45312188 139.187506,3.140625 137.9375,3.140625 C137.343747,3.140625 136.769534,3.36327902 136.214844,3.80859375 C135.660153,4.25390848 135.171877,4.85155875 134.75,5.6015625 C134.328123,6.35156625 133.988283,7.21874508 133.730469,8.203125 C133.472655,9.18750492 133.34375,10.2187446 133.34375,11.296875 C133.34375,12.9218831 133.492186,14.4531178 133.789062,15.890625 C134.085939,17.3281322 134.519528,18.5859321 135.089844,19.6640625 C135.660159,20.7421929 136.351558,21.5976531 137.164062,22.2304688 C137.976567,22.8632844 138.898432,23.1796875 139.929688,23.1796875 L139.929688,23.1796875 Z" id="owo" fill="#FFFFFF" sketch:type="MSShapeGroup"></path>
            <path d="M55.5,31.5 L152.5,31.5" id="Line" stroke="#FFFFFF" stroke-linecap="square" sketch:type="MSShapeGroup"></path>
            <path d="M0.793457031,46.1826172 L2.14550781,46.1826172 L2.14550781,47.5727539 C2.28092516,47.3992504 2.43220945,47.2225758 2.59936523,47.0427246 C2.76652102,46.8628734 2.95165914,46.698894 3.15478516,46.5507812 C3.35791117,46.4026685 3.58113485,46.2810063 3.82446289,46.185791 C4.06779093,46.0905757 4.33544776,46.0429688 4.62744141,46.0429688 C5.02946165,46.0429688 5.39550616,46.1276033 5.72558594,46.296875 C6.05566571,46.4661467 6.33707566,46.695718 6.56982422,46.9855957 C6.80257278,47.2754735 6.98242124,47.6150697 7.109375,48.0043945 C7.23632876,48.3937194 7.29980469,48.8084288 7.29980469,49.2485352 C7.29980469,49.8113635 7.22151771,50.3308082 7.06494141,50.8068848 C6.9083651,51.2829614 6.68619936,51.694497 6.3984375,52.0415039 C6.11067564,52.3885108 5.76155804,52.6593415 5.35107422,52.8540039 C4.9405904,53.0486663 4.47933199,53.1459961 3.96728516,53.1459961 C3.77685452,53.1459961 3.60123778,53.1364747 3.44042969,53.1174316 C3.27962159,53.0983886 3.12622143,53.0687665 2.98022461,53.0285645 C2.83422779,52.9883624 2.69352281,52.9365238 2.55810547,52.8730469 C2.42268813,52.80957 2.28515695,52.7333989 2.14550781,52.6445312 L2.14550781,55.8754883 L0.793457031,55.8754883 L0.793457031,46.1826172 Z M2.14550781,51.1591797 C2.14550781,51.3623057 2.18994096,51.5548494 2.27880859,51.7368164 C2.36767623,51.9187835 2.49251222,52.0764153 2.65332031,52.2097168 C2.81412841,52.3430182 3.00667206,52.4488115 3.23095703,52.5270996 C3.45524201,52.6053878 3.70068226,52.6445312 3.96728516,52.6445312 C4.22119268,52.6445312 4.4592274,52.5799974 4.68139648,52.4509277 C4.90356556,52.3218581 5.09822508,52.1388358 5.26538086,51.9018555 C5.43253664,51.6648751 5.56372023,51.3824072 5.65893555,51.0544434 C5.75415087,50.7264795 5.80175781,50.3614929 5.80175781,49.9594727 C5.80175781,49.4558894 5.75732466,49.0168476 5.66845703,48.642334 C5.5795894,48.2678204 5.45581134,47.9557304 5.29711914,47.7060547 C5.13842694,47.456379 4.95117295,47.2701829 4.73535156,47.1474609 C4.51953017,47.024739 4.28255337,46.9633789 4.02441406,46.9633789 C3.82551984,46.9633789 3.63614999,46.9940589 3.45629883,47.0554199 C3.27644767,47.1167809 3.10717853,47.1982417 2.94848633,47.2998047 C2.78979413,47.4013677 2.64274156,47.5187982 2.50732422,47.6520996 C2.37190687,47.7854011 2.25130261,47.9239902 2.14550781,48.0678711 L2.14550781,51.1591797 Z M13.590332,53 L12.2319336,53 L12.2319336,52.0668945 C12.0711255,52.1896165 11.9134936,52.3144525 11.7590332,52.4414062 C11.6045728,52.56836 11.4374195,52.6847325 11.2575684,52.7905273 C11.0777172,52.8963221 10.878826,52.9820146 10.6608887,53.0476074 C10.4429514,53.1132002 10.1901056,53.1459961 9.90234375,53.1459961 C9.63574085,53.1459961 9.39453233,53.1026209 9.17871094,53.0158691 C8.96288955,52.9291174 8.77880936,52.8095711 8.62646484,52.6572266 C8.47412033,52.5048821 8.3577478,52.3250336 8.27734375,52.1176758 C8.1969397,51.910318 8.15673828,51.6860364 8.15673828,51.4448242 C8.15673828,51.1528306 8.21492455,50.8894055 8.33129883,50.654541 C8.44767311,50.4196766 8.60636293,50.2091481 8.80737305,50.0229492 C9.00838317,49.8367504 9.2432441,49.671713 9.51196289,49.527832 C9.78068168,49.3839511 10.0652654,49.2548834 10.3657227,49.140625 C10.6661799,49.0263666 10.976154,48.9248051 11.2956543,48.8359375 C11.6151546,48.7470699 11.9272446,48.6645512 12.2319336,48.5883789 L12.2319336,48.1630859 C12.2319336,47.8541651 12.2012536,47.5928559 12.1398926,47.3791504 C12.0785316,47.1654449 11.9907232,46.993002 11.8764648,46.8618164 C11.7622065,46.7306309 11.6236174,46.6364749 11.4606934,46.5793457 C11.2977694,46.5222165 11.1147471,46.4936523 10.9116211,46.4936523 C10.6831043,46.4936523 10.4969083,46.5232744 10.3530273,46.5825195 C10.2091464,46.6417646 10.0959477,46.7200516 10.0134277,46.8173828 C9.93090779,46.914714 9.87483739,47.0257969 9.84521484,47.1506348 C9.8155923,47.2754726 9.80078125,47.4013666 9.80078125,47.5283203 C9.80078125,47.6468105 9.79125986,47.7610672 9.7722168,47.8710938 C9.75317373,47.9811203 9.71826197,48.0773922 9.66748047,48.1599121 C9.61669896,48.2424321 9.54793338,48.3090818 9.46118164,48.3598633 C9.3744299,48.4106448 9.26334703,48.4360352 9.12792969,48.4360352 C9.02213489,48.4360352 8.92586306,48.4159344 8.83911133,48.3757324 C8.75235959,48.3355304 8.67724641,48.27946 8.61376953,48.2075195 C8.55029265,48.1355791 8.50162777,48.0509445 8.46777344,47.9536133 C8.4339191,47.8562821 8.41699219,47.7504889 8.41699219,47.6362305 C8.41699219,47.4119455 8.49104744,47.2024749 8.63916016,47.0078125 C8.78727288,46.8131501 8.98616412,46.6449389 9.23583984,46.5031738 C9.48551557,46.3614088 9.77750484,46.249268 10.1118164,46.166748 C10.446128,46.0842281 10.7973614,46.0429688 11.1655273,46.0429688 C11.6140973,46.0429688 11.992837,46.086344 12.3017578,46.1730957 C12.6106786,46.2598474 12.8603506,46.3815096 13.0507812,46.5380859 C13.2412119,46.6946622 13.3787431,46.88509 13.4633789,47.109375 C13.5480147,47.33366 13.590332,47.5812161 13.590332,47.8520508 L13.590332,53 Z M12.2319336,49.0263672 C12.0372712,49.0898441 11.8352061,49.1617835 11.6257324,49.2421875 C11.4162587,49.3225915 11.2110199,49.4125158 11.0100098,49.5119629 C10.8089996,49.61141 10.6175139,49.7193191 10.4355469,49.8356934 C10.2535798,49.9520676 10.0938321,50.0758457 9.95629883,50.2070312 C9.81876559,50.3382168 9.70979858,50.4778638 9.62939453,50.6259766 C9.54899048,50.7740893 9.50878906,50.9285474 9.50878906,51.0893555 C9.50878906,51.2543954 9.53946909,51.4120272 9.60083008,51.5622559 C9.66219106,51.7124845 9.74365184,51.8436681 9.84521484,51.9558105 C9.94677785,52.067953 10.0642083,52.1568193 10.1975098,52.2224121 C10.3308112,52.2880049 10.4694003,52.3208008 10.6132812,52.3208008 C10.7656258,52.3208008 10.9105625,52.3007001 11.0480957,52.260498 C11.1856289,52.220296 11.3189284,52.1663415 11.447998,52.0986328 C11.5770677,52.0309241 11.7061354,51.9515792 11.8352051,51.8605957 C11.9642747,51.7696122 12.0965163,51.6733404 12.2319336,51.5717773 L12.2319336,49.0263672 Z M14.6503906,46.1889648 L16.1928711,46.1889648 L18.8271484,51.1083984 L20.9726562,46.1889648 L21.6962891,46.1889648 L18.2177734,54.1933594 C18.0696607,54.5276709 17.9003916,54.8175443 17.7099609,55.0629883 C17.5195303,55.3084322 17.3174653,55.5104973 17.1037598,55.6691895 C16.8900543,55.8278817 16.6710623,55.9463701 16.4467773,56.0246582 C16.2224924,56.1029464 16.0024425,56.1420898 15.7866211,56.1420898 C15.6385084,56.1420898 15.4978034,56.1230471 15.364502,56.0849609 C15.2312005,56.0468748 15.114828,55.9929203 15.0153809,55.9230957 C14.9159337,55.8532711 14.8376468,55.7696945 14.7805176,55.6723633 C14.7233884,55.5750321 14.6948242,55.4692389 14.6948242,55.3549805 C14.6948242,55.261881 14.713867,55.1698409 14.7519531,55.0788574 C14.7900393,54.9878739 14.8439938,54.908529 14.9138184,54.8408203 C14.9836429,54.7731116 15.0682775,54.7180992 15.1677246,54.6757812 C15.2671717,54.6334633 15.3782546,54.6123047 15.5009766,54.6123047 C15.6448575,54.6123047 15.7580562,54.6281737 15.8405762,54.6599121 C15.9230961,54.6916505 15.9982093,54.7276202 16.065918,54.7678223 C16.1336266,54.8080243 16.205566,54.843994 16.2817383,54.8757324 C16.3579105,54.9074709 16.4615879,54.9233398 16.5927734,54.9233398 C16.7324226,54.9233398 16.8572586,54.8831384 16.9672852,54.8027344 C17.0773117,54.7223303 17.1767574,54.6218268 17.265625,54.5012207 C17.3544926,54.3806146 17.4327796,54.2483731 17.5004883,54.1044922 C17.568197,53.9606113 17.629557,53.8273118 17.6845703,53.7045898 L18.1416016,52.6826172 L14.6503906,46.1889648 Z M28.5327148,52.6762695 C28.7189137,52.6762695 28.8902987,52.6477054 29.046875,52.5905762 C29.2034513,52.533447 29.3378087,52.4583338 29.4499512,52.3652344 C29.5620937,52.272135 29.649902,52.1642259 29.7133789,52.0415039 C29.7768558,51.9187819 29.8085938,51.7939459 29.8085938,51.6669922 C29.8085938,51.4596344 29.7567551,51.278728 29.6530762,51.1242676 C29.5493973,50.9698072 29.4118661,50.8301601 29.2404785,50.7053223 C29.0690909,50.5804844 28.8733735,50.4672857 28.6533203,50.3657227 C28.4332671,50.2641596 28.2100434,50.1594244 27.9836426,50.0515137 C27.7572417,49.943603 27.534018,49.8272304 27.3139648,49.7023926 C27.0939117,49.5775547 26.8981942,49.4336759 26.7268066,49.270752 C26.5554191,49.107828 26.4178879,48.919516 26.314209,48.7058105 C26.2105301,48.4921051 26.1586914,48.2392593 26.1586914,47.9472656 C26.1586914,47.6721991 26.2168777,47.4182954 26.333252,47.1855469 C26.4496262,46.9527983 26.6104319,46.7517912 26.8156738,46.5825195 C27.0209157,46.4132479 27.266356,46.2810063 27.552002,46.185791 C27.8376479,46.0905757 28.1497379,46.0429688 28.4882812,46.0429688 C28.7125662,46.0429688 28.9241527,46.0588377 29.1230469,46.0905762 C29.3219411,46.1223146 29.5155427,46.1836747 29.7038574,46.2746582 C29.8921722,46.3656417 30.0804841,46.4936515 30.2687988,46.6586914 C30.4571136,46.8237313 30.652831,47.0395494 30.855957,47.3061523 L30.3608398,47.7504883 C30.1027005,47.3273091 29.8138851,47.0120453 29.4943848,46.8046875 C29.1748845,46.5973297 28.8331724,46.4936523 28.4692383,46.4936523 C28.2788076,46.4936523 28.1031909,46.5179848 27.9423828,46.5666504 C27.7815747,46.615316 27.6440435,46.6809078 27.5297852,46.7634277 C27.4155268,46.8459477 27.3266605,46.9422195 27.2631836,47.0522461 C27.1997067,47.1622727 27.1679688,47.2786452 27.1679688,47.4013672 C27.1679688,47.6044932 27.2250971,47.7822258 27.3393555,47.9345703 C27.4536139,48.0869148 27.6038402,48.224446 27.7900391,48.347168 C27.9762379,48.4698899 28.1878243,48.5830887 28.4248047,48.6867676 C28.661785,48.7904465 28.9051094,48.8962397 29.1547852,49.0041504 C29.4044609,49.1120611 29.6477853,49.2273757 29.8847656,49.3500977 C30.121746,49.4728196 30.3333324,49.6156405 30.5195312,49.7785645 C30.7057301,49.9414884 30.8559565,50.1298004 30.9702148,50.3435059 C31.0844732,50.5572114 31.1416016,50.8058254 31.1416016,51.0893555 C31.1416016,51.3771173 31.087647,51.64689 30.9797363,51.8986816 C30.8718256,52.1504733 30.709962,52.3684073 30.4941406,52.5524902 C30.2783192,52.7365732 30.0064307,52.8815099 29.6784668,52.9873047 C29.3505029,53.0930995 28.9685894,53.1459961 28.5327148,53.1459961 C28.3338206,53.1459961 28.1296397,53.1301271 27.920166,53.0983887 C27.7106923,53.0666502 27.4991059,53.0052902 27.2854004,52.9143066 C27.0716949,52.8233231 26.8579926,52.6953133 26.6442871,52.5302734 C26.4305816,52.3652335 26.222169,52.1494154 26.019043,51.8828125 L26.5712891,51.3813477 C26.736329,51.6140962 26.8950188,51.8119295 27.0473633,51.9748535 C27.1997078,52.1377775 27.353108,52.271077 27.5075684,52.3747559 C27.6620288,52.4784348 27.8228345,52.5546059 27.9899902,52.6032715 C28.157146,52.6519371 28.3380524,52.6762695 28.5327148,52.6762695 L28.5327148,52.6762695 Z M35.527832,53.1459961 C35.0665667,53.1459961 34.6338725,53.0592457 34.2297363,52.8857422 C33.8256002,52.7122387 33.4722509,52.4763199 33.1696777,52.1779785 C32.8671046,51.8796372 32.6280119,51.5305196 32.4523926,51.1306152 C32.2767732,50.7307109 32.1889648,50.3022484 32.1889648,49.8452148 C32.1889648,49.2993137 32.2693677,48.7936221 32.4301758,48.328125 C32.5909839,47.8626279 32.8173814,47.4606137 33.109375,47.1220703 C33.4013686,46.783527 33.75366,46.5190439 34.1662598,46.3286133 C34.5788595,46.1381826 35.0369441,46.0429688 35.5405273,46.0429688 C35.9890973,46.0429688 36.399575,46.1212557 36.7719727,46.277832 C37.1443704,46.4344083 37.4638659,46.6449368 37.7304688,46.9094238 C37.9970716,47.1739108 38.2044263,47.4796532 38.3525391,47.8266602 C38.5006518,48.1736671 38.574707,48.5375958 38.574707,48.918457 L33.4902344,48.918457 C33.4902344,49.3754906 33.5494786,49.7997214 33.6679688,50.1911621 C33.7864589,50.5826029 33.9514963,50.9200832 34.1630859,51.2036133 C34.3746755,51.4871433 34.6285792,51.7093091 34.9248047,51.8701172 C35.2210301,52.0309253 35.5447574,52.1113281 35.8959961,52.1113281 C36.1922215,52.1113281 36.4757473,52.0637212 36.746582,51.9685059 C37.0174167,51.8732905 37.262857,51.7484545 37.4829102,51.5939941 C37.7029633,51.4395337 37.8902173,51.2618011 38.0446777,51.060791 C38.1991381,50.8597809 38.3081052,50.6534841 38.371582,50.4418945 L38.7587891,50.6132812 C38.6614578,50.96452 38.503826,51.2935369 38.2858887,51.6003418 C38.0679514,51.9071467 37.8140477,52.1748035 37.5241699,52.4033203 C37.2342922,52.6318371 36.9169125,52.8127435 36.5720215,52.9460449 C36.2271304,53.0793464 35.8790708,53.1459961 35.527832,53.1459961 L35.527832,53.1459961 Z M36.8798828,48.3725586 C36.8798828,48.1144193 36.8343917,47.8742687 36.7434082,47.6520996 C36.6524247,47.4299305 36.5275887,47.2373869 36.3688965,47.0744629 C36.2102043,46.9115389 36.0240082,46.7835291 35.8103027,46.6904297 C35.5965972,46.5973303 35.367026,46.5507812 35.121582,46.5507812 C34.918456,46.5507812 34.7227386,46.5973303 34.5344238,46.6904297 C34.3461091,46.7835291 34.1789558,46.910481 34.032959,47.0712891 C33.8869622,47.2320972 33.7663579,47.4235829 33.6711426,47.645752 C33.5759273,47.867921 33.517741,48.1080716 33.496582,48.3662109 L36.8798828,48.3725586 Z M42.9228516,53.1459961 C42.4785134,53.1459961 42.0606302,53.0581877 41.6691895,52.8825684 C41.2777487,52.706949 40.9370945,52.4667984 40.6472168,52.1621094 C40.357339,51.8574204 40.1288257,51.4998393 39.9616699,51.0893555 C39.7945141,50.6788716 39.7109375,50.2408877 39.7109375,49.7753906 C39.7109375,49.259112 39.8029776,48.7745791 39.9870605,48.3217773 C40.1711435,47.8689756 40.4239893,47.473309 40.7456055,47.1347656 C41.0672217,46.7962223 41.4417296,46.5296234 41.8691406,46.3349609 C42.2965516,46.1402985 42.7556942,46.0429688 43.246582,46.0429688 C43.6274433,46.0429688 43.9786768,46.0842281 44.300293,46.166748 C44.6219092,46.249268 44.8990874,46.3635247 45.1318359,46.5095215 C45.3645845,46.6555183 45.5465488,46.8279612 45.6777344,47.0268555 C45.8089199,47.2257497 45.8745117,47.439452 45.8745117,47.6679688 C45.8745117,47.7695318 45.8480634,47.8658036 45.795166,47.9567871 C45.7422686,48.0477706 45.673503,48.1271155 45.5888672,48.1948242 C45.5042313,48.2625329 45.4079595,48.3164874 45.3000488,48.3566895 C45.1921381,48.3968915 45.0831711,48.4169922 44.9731445,48.4169922 C44.8504226,48.4169922 44.7403976,48.3947756 44.6430664,48.3503418 C44.5457352,48.305908 44.4621586,48.2487796 44.392334,48.1789551 C44.3225094,48.1091305 44.2696128,48.0297856 44.2336426,47.940918 C44.1976723,47.8520503 44.1796875,47.7610682 44.1796875,47.6679688 C44.1796875,47.5113924 44.1627606,47.3643399 44.1289062,47.2268066 C44.0950519,47.0892734 44.0358077,46.970785 43.9511719,46.8713379 C43.866536,46.7718908 43.7501635,46.6936038 43.6020508,46.6364746 C43.4539381,46.5793454 43.2656261,46.5507812 43.0371094,46.5507812 C42.7281886,46.5507812 42.4510103,46.6131992 42.2055664,46.7380371 C41.9601225,46.862875 41.7527678,47.0310862 41.5834961,47.2426758 C41.4142244,47.4542654 41.2851567,47.7028794 41.1962891,47.9885254 C41.1074214,48.2741714 41.0629883,48.5777979 41.0629883,48.8994141 C41.0629883,49.3352886 41.1201166,49.7478822 41.234375,50.137207 C41.3486334,50.5265319 41.5094391,50.867186 41.7167969,51.1591797 C41.9241547,51.4511733 42.1738267,51.6828605 42.4658203,51.854248 C42.757814,52.0256356 43.0836571,52.1113281 43.4433594,52.1113281 C43.7607438,52.1113281 44.0358061,52.0616053 44.2685547,51.9621582 C44.5013032,51.8627111 44.7033683,51.7283537 44.8747559,51.559082 C45.0461434,51.3898104 45.193196,51.193035 45.315918,50.96875 C45.4386399,50.744465 45.5486649,50.5074882 45.6459961,50.2578125 L46.0522461,50.4228516 C45.9379877,50.8502626 45.7835296,51.233234 45.5888672,51.5717773 C45.3942048,51.9103207 45.1646335,52.1959624 44.9001465,52.4287109 C44.6356595,52.6614595 44.3373226,52.8391921 44.005127,52.9619141 C43.6729313,53.084636 43.3121764,53.1459961 42.9228516,53.1459961 L42.9228516,53.1459961 Z M48.6738281,46.1826172 L48.6738281,51.0322266 C48.6738281,51.2014982 48.7129716,51.361246 48.7912598,51.5114746 C48.8695479,51.6617032 48.9763991,51.7918289 49.1118164,51.9018555 C49.2472337,52.0118821 49.4059236,52.0996904 49.5878906,52.1652832 C49.7698577,52.230876 49.9645172,52.2636719 50.171875,52.2636719 C50.3072923,52.2636719 50.4511711,52.2351077 50.6035156,52.1779785 C50.7558601,52.1208493 50.9050286,52.0415044 51.0510254,51.9399414 C51.1970222,51.8383784 51.3345534,51.7209479 51.463623,51.5876465 C51.5926927,51.454345 51.6995438,51.3115242 51.7841797,51.1591797 L51.7841797,46.1826172 L53.1362305,46.1826172 L53.1362305,53 L51.7841797,53 L51.7841797,51.7241211 C51.6656895,51.9187835 51.5165211,52.1028637 51.3366699,52.2763672 C51.1568188,52.4498707 50.9621593,52.601155 50.7526855,52.7302246 C50.5432118,52.8592943 50.3273937,52.9608557 50.1052246,53.0349121 C49.8830555,53.1089685 49.672527,53.1459961 49.4736328,53.1459961 C49.1774074,53.1459961 48.8981133,53.0899257 48.6357422,52.9777832 C48.3733711,52.8656407 48.1448577,52.7143564 47.9501953,52.5239258 C47.7555329,52.3334951 47.6021327,52.1102715 47.4899902,51.854248 C47.3778477,51.5982246 47.3217773,51.3242202 47.3217773,51.0322266 L47.3217773,46.1826172 L48.6738281,46.1826172 Z M54.7231445,46.1826172 L56.0688477,46.1826172 L56.0688477,47.4711914 C56.2000332,47.2807608 56.3417961,47.0987964 56.4941406,46.925293 C56.6464851,46.7517895 56.805175,46.5994473 56.9702148,46.4682617 C57.1352547,46.3370762 57.3055818,46.2333988 57.4812012,46.1572266 C57.6568205,46.0810543 57.8356111,46.0429688 58.0175781,46.0429688 C58.1656908,46.0429688 58.303222,46.0651853 58.4301758,46.1096191 C58.5571295,46.154053 58.6682124,46.2132972 58.7634277,46.2873535 C58.8586431,46.3614099 58.9337562,46.4481603 58.9887695,46.5476074 C59.0437828,46.6470545 59.0712891,46.7517898 59.0712891,46.8618164 C59.0712891,47.0818696 59.0025235,47.2479649 58.8649902,47.3601074 C58.727457,47.4722499 58.5359713,47.5283203 58.2905273,47.5283203 C58.1381828,47.5283203 58.0165206,47.5124513 57.9255371,47.4807129 C57.8345536,47.4489745 57.7520349,47.4130048 57.6779785,47.3728027 C57.6039222,47.3326007 57.528809,47.296631 57.4526367,47.2648926 C57.3764645,47.2331541 57.2812506,47.2172852 57.1669922,47.2172852 C57.0781246,47.2172852 56.9882003,47.2437335 56.8972168,47.2966309 C56.8062333,47.3495283 56.7152511,47.4235835 56.6242676,47.5187988 C56.5332841,47.6140141 56.441244,47.726155 56.3481445,47.8552246 C56.2550451,47.9842943 56.1619471,48.1249992 56.0688477,48.2773438 L56.0688477,53 L54.7231445,53 L54.7231445,46.1826172 Z M62.9624023,53.1459961 C62.501137,53.1459961 62.0684428,53.0592457 61.6643066,52.8857422 C61.2601705,52.7122387 60.9068212,52.4763199 60.604248,52.1779785 C60.3016749,51.8796372 60.0625823,51.5305196 59.8869629,51.1306152 C59.7113435,50.7307109 59.6235352,50.3022484 59.6235352,49.8452148 C59.6235352,49.2993137 59.703938,48.7936221 59.8647461,48.328125 C60.0255542,47.8626279 60.2519517,47.4606137 60.5439453,47.1220703 C60.835939,46.783527 61.1882304,46.5190439 61.6008301,46.3286133 C62.0134298,46.1381826 62.4715144,46.0429688 62.9750977,46.0429688 C63.4236676,46.0429688 63.8341453,46.1212557 64.206543,46.277832 C64.5789407,46.4344083 64.8984362,46.6449368 65.1650391,46.9094238 C65.431642,47.1739108 65.6389967,47.4796532 65.7871094,47.8266602 C65.9352221,48.1736671 66.0092773,48.5375958 66.0092773,48.918457 L60.9248047,48.918457 C60.9248047,49.3754906 60.9840489,49.7997214 61.1025391,50.1911621 C61.2210292,50.5826029 61.3860667,50.9200832 61.5976562,51.2036133 C61.8092458,51.4871433 62.0631496,51.7093091 62.359375,51.8701172 C62.6556004,52.0309253 62.9793277,52.1113281 63.3305664,52.1113281 C63.6267918,52.1113281 63.9103177,52.0637212 64.1811523,51.9685059 C64.451987,51.8732905 64.6974273,51.7484545 64.9174805,51.5939941 C65.1375337,51.4395337 65.3247876,51.2618011 65.479248,51.060791 C65.6337085,50.8597809 65.7426755,50.6534841 65.8061523,50.4418945 L66.1933594,50.6132812 C66.0960282,50.96452 65.9383963,51.2935369 65.720459,51.6003418 C65.5025217,51.9071467 65.248618,52.1748035 64.9587402,52.4033203 C64.6688625,52.6318371 64.3514828,52.8127435 64.0065918,52.9460449 C63.6617007,53.0793464 63.3136411,53.1459961 62.9624023,53.1459961 L62.9624023,53.1459961 Z M64.3144531,48.3725586 C64.3144531,48.1144193 64.268962,47.8742687 64.1779785,47.6520996 C64.086995,47.4299305 63.962159,47.2373869 63.8034668,47.0744629 C63.6447746,46.9115389 63.4585785,46.7835291 63.244873,46.6904297 C63.0311676,46.5973303 62.8015963,46.5507812 62.5561523,46.5507812 C62.3530263,46.5507812 62.1573089,46.5973303 61.9689941,46.6904297 C61.7806794,46.7835291 61.6135261,46.910481 61.4675293,47.0712891 C61.3215325,47.2320972 61.2009282,47.4235829 61.1057129,47.645752 C61.0104976,47.867921 60.9523113,48.1080716 60.9311523,48.3662109 L64.3144531,48.3725586 Z M67.2407227,54.8725586 C67.4438487,54.8175453 67.6332185,54.7382004 67.8088379,54.6345215 C67.9844573,54.5308426 68.1378574,54.4123542 68.269043,54.2790527 C68.4002285,54.1457513 68.5039059,54.0008146 68.5800781,53.8442383 C68.6562504,53.687662 68.6943359,53.5268563 68.6943359,53.3618164 C68.6943359,53.2644852 68.6752932,53.1798506 68.637207,53.1079102 C68.5991209,53.0359697 68.550456,53 68.4912109,53 C68.4361976,53 68.3896486,53.0105793 68.3515625,53.0317383 C68.3134764,53.0528972 68.2743329,53.0772297 68.2341309,53.1047363 C68.1939288,53.132243 68.1484378,53.1565754 68.0976562,53.1777344 C68.0468747,53.1988933 67.9791671,53.2094727 67.8945312,53.2094727 C67.8056636,53.2094727 67.722087,53.1904299 67.6437988,53.1523438 C67.5655107,53.1142576 67.4956872,53.061361 67.4343262,52.9936523 C67.3729652,52.9259437 67.3253582,52.8465988 67.2915039,52.7556152 C67.2576496,52.6646317 67.2407227,52.5641282 67.2407227,52.4541016 C67.2407227,52.3398432 67.2639972,52.23405 67.3105469,52.1367188 C67.3570966,52.0393875 67.4216304,51.953695 67.5041504,51.8796387 C67.5866703,51.8055823 67.6829422,51.748454 67.7929688,51.708252 C67.9029953,51.6680499 68.0214837,51.6479492 68.1484375,51.6479492 C68.3134774,51.6479492 68.4668775,51.6839189 68.6086426,51.7558594 C68.7504076,51.8277998 68.8741857,51.9272455 68.9799805,52.0541992 C69.0857753,52.181153 69.1693519,52.3292635 69.2307129,52.4985352 C69.2920739,52.6678068 69.3227539,52.8476553 69.3227539,53.0380859 C69.3227539,53.3385432 69.2666835,53.6157214 69.154541,53.8696289 C69.0423985,54.1235364 68.8911142,54.3446442 68.7006836,54.532959 C68.510253,54.7212737 68.2891451,54.872558 68.0373535,54.9868164 C67.7855619,55.1010748 67.5200209,55.1666666 67.2407227,55.1835938 L67.2407227,54.8725586 Z M74.6547852,46.1826172 L76.0068359,46.1826172 L76.0068359,47.5727539 C76.1422533,47.3992504 76.2935376,47.2225758 76.4606934,47.0427246 C76.6278491,46.8628734 76.8129873,46.698894 77.0161133,46.5507812 C77.2192393,46.4026685 77.442463,46.2810063 77.685791,46.185791 C77.9291191,46.0905757 78.1967759,46.0429688 78.4887695,46.0429688 C78.8907898,46.0429688 79.2568343,46.1276033 79.5869141,46.296875 C79.9169938,46.4661467 80.1984038,46.695718 80.4311523,46.9855957 C80.6639009,47.2754735 80.8437494,47.6150697 80.9707031,48.0043945 C81.0976569,48.3937194 81.1611328,48.8084288 81.1611328,49.2485352 C81.1611328,49.8113635 81.0828458,50.3308082 80.9262695,50.8068848 C80.7696932,51.2829614 80.5475275,51.694497 80.2597656,52.0415039 C79.9720038,52.3885108 79.6228862,52.6593415 79.2124023,52.8540039 C78.8019185,53.0486663 78.3406601,53.1459961 77.8286133,53.1459961 C77.6381826,53.1459961 77.4625659,53.1364747 77.3017578,53.1174316 C77.1409497,53.0983886 76.9875496,53.0687665 76.8415527,53.0285645 C76.6955559,52.9883624 76.5548509,52.9365238 76.4194336,52.8730469 C76.2840163,52.80957 76.1464851,52.7333989 76.0068359,52.6445312 L76.0068359,55.8754883 L74.6547852,55.8754883 L74.6547852,46.1826172 Z M76.0068359,51.1591797 C76.0068359,51.3623057 76.0512691,51.5548494 76.1401367,51.7368164 C76.2290044,51.9187835 76.3538403,52.0764153 76.5146484,52.2097168 C76.6754565,52.3430182 76.8680002,52.4488115 77.0922852,52.5270996 C77.3165701,52.6053878 77.5620104,52.6445312 77.8286133,52.6445312 C78.0825208,52.6445312 78.3205555,52.5799974 78.5427246,52.4509277 C78.7648937,52.3218581 78.9595532,52.1388358 79.126709,51.9018555 C79.2938648,51.6648751 79.4250484,51.3824072 79.5202637,51.0544434 C79.615479,50.7264795 79.6630859,50.3614929 79.6630859,49.9594727 C79.6630859,49.4558894 79.6186528,49.0168476 79.5297852,48.642334 C79.4409175,48.2678204 79.3171395,47.9557304 79.1584473,47.7060547 C78.9997551,47.456379 78.8125011,47.2701829 78.5966797,47.1474609 C78.3808583,47.024739 78.1438815,46.9633789 77.8857422,46.9633789 C77.686848,46.9633789 77.4974781,46.9940589 77.317627,47.0554199 C77.1377758,47.1167809 76.9685067,47.1982417 76.8098145,47.2998047 C76.6511223,47.4013677 76.5040697,47.5187982 76.3686523,47.6520996 C76.233235,47.7854011 76.1126307,47.9239902 76.0068359,48.0678711 L76.0068359,51.1591797 Z M87.4516602,53 L86.0932617,53 L86.0932617,52.0668945 C85.9324536,52.1896165 85.7748217,52.3144525 85.6203613,52.4414062 C85.4659009,52.56836 85.2987476,52.6847325 85.1188965,52.7905273 C84.9390453,52.8963221 84.7401541,52.9820146 84.5222168,53.0476074 C84.3042795,53.1132002 84.0514337,53.1459961 83.7636719,53.1459961 C83.497069,53.1459961 83.2558605,53.1026209 83.0400391,53.0158691 C82.8242177,52.9291174 82.6401375,52.8095711 82.487793,52.6572266 C82.3354485,52.5048821 82.2190759,52.3250336 82.1386719,52.1176758 C82.0582678,51.910318 82.0180664,51.6860364 82.0180664,51.4448242 C82.0180664,51.1528306 82.0762527,50.8894055 82.192627,50.654541 C82.3090012,50.4196766 82.4676911,50.2091481 82.6687012,50.0229492 C82.8697113,49.8367504 83.1045722,49.671713 83.373291,49.527832 C83.6420098,49.3839511 83.9265935,49.2548834 84.2270508,49.140625 C84.527508,49.0263666 84.8374821,48.9248051 85.1569824,48.8359375 C85.4764827,48.7470699 85.7885727,48.6645512 86.0932617,48.5883789 L86.0932617,48.1630859 C86.0932617,47.8541651 86.0625817,47.5928559 86.0012207,47.3791504 C85.9398597,47.1654449 85.8520514,46.993002 85.737793,46.8618164 C85.6235346,46.7306309 85.4849455,46.6364749 85.3220215,46.5793457 C85.1590975,46.5222165 84.9760752,46.4936523 84.7729492,46.4936523 C84.5444325,46.4936523 84.3582364,46.5232744 84.2143555,46.5825195 C84.0704745,46.6417646 83.9572758,46.7200516 83.8747559,46.8173828 C83.7922359,46.914714 83.7361655,47.0257969 83.706543,47.1506348 C83.6769204,47.2754726 83.6621094,47.4013666 83.6621094,47.5283203 C83.6621094,47.6468105 83.652588,47.7610672 83.6335449,47.8710938 C83.6145019,47.9811203 83.5795901,48.0773922 83.5288086,48.1599121 C83.4780271,48.2424321 83.4092615,48.3090818 83.3225098,48.3598633 C83.235758,48.4106448 83.1246752,48.4360352 82.9892578,48.4360352 C82.883463,48.4360352 82.7871912,48.4159344 82.7004395,48.3757324 C82.6136877,48.3355304 82.5385745,48.27946 82.4750977,48.2075195 C82.4116208,48.1355791 82.3629559,48.0509445 82.3291016,47.9536133 C82.2952472,47.8562821 82.2783203,47.7504889 82.2783203,47.6362305 C82.2783203,47.4119455 82.3523756,47.2024749 82.5004883,47.0078125 C82.648601,46.8131501 82.8474922,46.6449389 83.097168,46.5031738 C83.3468437,46.3614088 83.638833,46.249268 83.9731445,46.166748 C84.3074561,46.0842281 84.6586896,46.0429688 85.0268555,46.0429688 C85.4754254,46.0429688 85.8541651,46.086344 86.1630859,46.1730957 C86.4720068,46.2598474 86.7216787,46.3815096 86.9121094,46.5380859 C87.10254,46.6946622 87.2400712,46.88509 87.324707,47.109375 C87.4093429,47.33366 87.4516602,47.5812161 87.4516602,47.8520508 L87.4516602,53 Z M86.0932617,49.0263672 C85.8985993,49.0898441 85.6965343,49.1617835 85.4870605,49.2421875 C85.2775868,49.3225915 85.072348,49.4125158 84.8713379,49.5119629 C84.6703278,49.61141 84.4788421,49.7193191 84.296875,49.8356934 C84.1149079,49.9520676 83.9551602,50.0758457 83.817627,50.2070312 C83.6800937,50.3382168 83.5711267,50.4778638 83.4907227,50.6259766 C83.4103186,50.7740893 83.3701172,50.9285474 83.3701172,51.0893555 C83.3701172,51.2543954 83.4007972,51.4120272 83.4621582,51.5622559 C83.5235192,51.7124845 83.60498,51.8436681 83.706543,51.9558105 C83.808106,52.067953 83.9255364,52.1568193 84.0588379,52.2224121 C84.1921393,52.2880049 84.3307284,52.3208008 84.4746094,52.3208008 C84.6269539,52.3208008 84.7718906,52.3007001 84.9094238,52.260498 C85.0469571,52.220296 85.1802565,52.1663415 85.3093262,52.0986328 C85.4383958,52.0309241 85.5674635,51.9515792 85.6965332,51.8605957 C85.8256029,51.7696122 85.9578444,51.6733404 86.0932617,51.5717773 L86.0932617,49.0263672 Z M88.5117188,46.1889648 L90.0541992,46.1889648 L92.6884766,51.1083984 L94.8339844,46.1889648 L95.5576172,46.1889648 L92.0791016,54.1933594 C91.9309888,54.5276709 91.7617197,54.8175443 91.5712891,55.0629883 C91.3808584,55.3084322 91.1787934,55.5104973 90.9650879,55.6691895 C90.7513824,55.8278817 90.5323904,55.9463701 90.3081055,56.0246582 C90.0838205,56.1029464 89.8637706,56.1420898 89.6479492,56.1420898 C89.4998365,56.1420898 89.3591315,56.1230471 89.2258301,56.0849609 C89.0925286,56.0468748 88.9761561,55.9929203 88.876709,55.9230957 C88.7772619,55.8532711 88.6989749,55.7696945 88.6418457,55.6723633 C88.5847165,55.5750321 88.5561523,55.4692389 88.5561523,55.3549805 C88.5561523,55.261881 88.5751951,55.1698409 88.6132812,55.0788574 C88.6513674,54.9878739 88.7053219,54.908529 88.7751465,54.8408203 C88.8449711,54.7731116 88.9296056,54.7180992 89.0290527,54.6757812 C89.1284998,54.6334633 89.2395827,54.6123047 89.3623047,54.6123047 C89.5061856,54.6123047 89.6193844,54.6281737 89.7019043,54.6599121 C89.7844242,54.6916505 89.8595374,54.7276202 89.9272461,54.7678223 C89.9949548,54.8080243 90.0668942,54.843994 90.1430664,54.8757324 C90.2192387,54.9074709 90.322916,54.9233398 90.4541016,54.9233398 C90.5937507,54.9233398 90.7185867,54.8831384 90.8286133,54.8027344 C90.9386399,54.7223303 91.0380855,54.6218268 91.1269531,54.5012207 C91.2158208,54.3806146 91.2941077,54.2483731 91.3618164,54.1044922 C91.4295251,53.9606113 91.4908851,53.8273118 91.5458984,53.7045898 L92.0029297,52.6826172 L88.5117188,46.1889648 Z M104.222168,46.1826172 L104.222168,46.7539062 L102.400391,46.7539062 L102.400391,53 L101.041992,53 L101.041992,46.7539062 L99.6137695,46.7539062 L99.6137695,46.1826172 L101.041992,46.1826172 L101.041992,45.3828125 C101.041992,45.0104148 101.108642,44.6602393 101.241943,44.3322754 C101.375245,44.0043115 101.556151,43.7186698 101.784668,43.4753418 C102.013185,43.2320138 102.281899,43.040528 102.59082,42.9008789 C102.899741,42.7612298 103.229816,42.6914062 103.581055,42.6914062 C103.881512,42.6914062 104.149169,42.7220863 104.384033,42.7834473 C104.618898,42.8448082 104.816731,42.927327 104.977539,43.0310059 C105.138347,43.1346848 105.261067,43.2574049 105.345703,43.3991699 C105.430339,43.540935 105.472656,43.6922192 105.472656,43.8530273 C105.472656,43.9545904 105.453613,44.0445146 105.415527,44.1228027 C105.377441,44.2010909 105.32666,44.2677406 105.263184,44.3227539 C105.199707,44.3777672 105.125651,44.4200845 105.041016,44.449707 C104.95638,44.4793296 104.867513,44.4941406 104.774414,44.4941406 C104.609374,44.4941406 104.48348,44.4624027 104.396729,44.3989258 C104.309977,44.3354489 104.243327,44.2550461 104.196777,44.1577148 C104.150228,44.0603836 104.1132,43.9556483 104.085693,43.8435059 C104.058187,43.7313634 104.019043,43.6266281 103.968262,43.5292969 C103.91748,43.4319657 103.844483,43.3515628 103.749268,43.2880859 C103.654052,43.2246091 103.517579,43.1928711 103.339844,43.1928711 C103.204426,43.1928711 103.078532,43.2320146 102.962158,43.3103027 C102.845784,43.3885909 102.746338,43.4912103 102.663818,43.6181641 C102.581298,43.7451178 102.516765,43.8911125 102.470215,44.0561523 C102.423665,44.2211922 102.400391,44.3904614 102.400391,44.5639648 L102.400391,46.1826172 L104.222168,46.1826172 Z M110.354004,53 L108.995605,53 L108.995605,52.0668945 C108.834797,52.1896165 108.677165,52.3144525 108.522705,52.4414062 C108.368245,52.56836 108.201091,52.6847325 108.02124,52.7905273 C107.841389,52.8963221 107.642498,52.9820146 107.424561,53.0476074 C107.206623,53.1132002 106.953777,53.1459961 106.666016,53.1459961 C106.399413,53.1459961 106.158204,53.1026209 105.942383,53.0158691 C105.726561,52.9291174 105.542481,52.8095711 105.390137,52.6572266 C105.237792,52.5048821 105.12142,52.3250336 105.041016,52.1176758 C104.960612,51.910318 104.92041,51.6860364 104.92041,51.4448242 C104.92041,51.1528306 104.978596,50.8894055 105.094971,50.654541 C105.211345,50.4196766 105.370035,50.2091481 105.571045,50.0229492 C105.772055,49.8367504 106.006916,49.671713 106.275635,49.527832 C106.544354,49.3839511 106.828937,49.2548834 107.129395,49.140625 C107.429852,49.0263666 107.739826,48.9248051 108.059326,48.8359375 C108.378826,48.7470699 108.690916,48.6645512 108.995605,48.5883789 L108.995605,48.1630859 C108.995605,47.8541651 108.964925,47.5928559 108.903564,47.3791504 C108.842203,47.1654449 108.754395,46.993002 108.640137,46.8618164 C108.525878,46.7306309 108.387289,46.6364749 108.224365,46.5793457 C108.061441,46.5222165 107.878419,46.4936523 107.675293,46.4936523 C107.446776,46.4936523 107.26058,46.5232744 107.116699,46.5825195 C106.972818,46.6417646 106.85962,46.7200516 106.7771,46.8173828 C106.69458,46.914714 106.638509,47.0257969 106.608887,47.1506348 C106.579264,47.2754726 106.564453,47.4013666 106.564453,47.5283203 C106.564453,47.6468105 106.554932,47.7610672 106.535889,47.8710938 C106.516846,47.9811203 106.481934,48.0773922 106.431152,48.1599121 C106.380371,48.2424321 106.311605,48.3090818 106.224854,48.3598633 C106.138102,48.4106448 106.027019,48.4360352 105.891602,48.4360352 C105.785807,48.4360352 105.689535,48.4159344 105.602783,48.3757324 C105.516031,48.3355304 105.440918,48.27946 105.377441,48.2075195 C105.313965,48.1355791 105.2653,48.0509445 105.231445,47.9536133 C105.197591,47.8562821 105.180664,47.7504889 105.180664,47.6362305 C105.180664,47.4119455 105.254719,47.2024749 105.402832,47.0078125 C105.550945,46.8131501 105.749836,46.6449389 105.999512,46.5031738 C106.249187,46.3614088 106.541177,46.249268 106.875488,46.166748 C107.2098,46.0842281 107.561033,46.0429688 107.929199,46.0429688 C108.377769,46.0429688 108.756509,46.086344 109.06543,46.1730957 C109.374351,46.2598474 109.624022,46.3815096 109.814453,46.5380859 C110.004884,46.6946622 110.142415,46.88509 110.227051,47.109375 C110.311687,47.33366 110.354004,47.5812161 110.354004,47.8520508 L110.354004,53 Z M108.995605,49.0263672 C108.800943,49.0898441 108.598878,49.1617835 108.389404,49.2421875 C108.179931,49.3225915 107.974692,49.4125158 107.773682,49.5119629 C107.572672,49.61141 107.381186,49.7193191 107.199219,49.8356934 C107.017252,49.9520676 106.857504,50.0758457 106.719971,50.2070312 C106.582437,50.3382168 106.47347,50.4778638 106.393066,50.6259766 C106.312662,50.7740893 106.272461,50.9285474 106.272461,51.0893555 C106.272461,51.2543954 106.303141,51.4120272 106.364502,51.5622559 C106.425863,51.7124845 106.507324,51.8436681 106.608887,51.9558105 C106.71045,52.067953 106.82788,52.1568193 106.961182,52.2224121 C107.094483,52.2880049 107.233072,52.3208008 107.376953,52.3208008 C107.529298,52.3208008 107.674234,52.3007001 107.811768,52.260498 C107.949301,52.220296 108.0826,52.1663415 108.21167,52.0986328 C108.34074,52.0309241 108.469807,51.9515792 108.598877,51.8605957 C108.727947,51.7696122 108.860188,51.6733404 108.995605,51.5717773 L108.995605,49.0263672 Z M114.340332,52.6762695 C114.526531,52.6762695 114.697916,52.6477054 114.854492,52.5905762 C115.011068,52.533447 115.145426,52.4583338 115.257568,52.3652344 C115.369711,52.272135 115.457519,52.1642259 115.520996,52.0415039 C115.584473,51.9187819 115.616211,51.7939459 115.616211,51.6669922 C115.616211,51.4596344 115.564372,51.278728 115.460693,51.1242676 C115.357014,50.9698072 115.219483,50.8301601 115.048096,50.7053223 C114.876708,50.5804844 114.680991,50.4672857 114.460938,50.3657227 C114.240884,50.2641596 114.017661,50.1594244 113.79126,50.0515137 C113.564859,49.943603 113.341635,49.8272304 113.121582,49.7023926 C112.901529,49.5775547 112.705811,49.4336759 112.534424,49.270752 C112.363036,49.107828 112.225505,48.919516 112.121826,48.7058105 C112.018147,48.4921051 111.966309,48.2392593 111.966309,47.9472656 C111.966309,47.6721991 112.024495,47.4182954 112.140869,47.1855469 C112.257243,46.9527983 112.418049,46.7517912 112.623291,46.5825195 C112.828533,46.4132479 113.073973,46.2810063 113.359619,46.185791 C113.645265,46.0905757 113.957355,46.0429688 114.295898,46.0429688 C114.520183,46.0429688 114.73177,46.0588377 114.930664,46.0905762 C115.129558,46.1223146 115.32316,46.1836747 115.511475,46.2746582 C115.699789,46.3656417 115.888101,46.4936515 116.076416,46.6586914 C116.264731,46.8237313 116.460448,47.0395494 116.663574,47.3061523 L116.168457,47.7504883 C115.910318,47.3273091 115.621502,47.0120453 115.302002,46.8046875 C114.982502,46.5973297 114.64079,46.4936523 114.276855,46.4936523 C114.086425,46.4936523 113.910808,46.5179848 113.75,46.5666504 C113.589192,46.615316 113.451661,46.6809078 113.337402,46.7634277 C113.223144,46.8459477 113.134278,46.9422195 113.070801,47.0522461 C113.007324,47.1622727 112.975586,47.2786452 112.975586,47.4013672 C112.975586,47.6044932 113.032714,47.7822258 113.146973,47.9345703 C113.261231,48.0869148 113.411457,48.224446 113.597656,48.347168 C113.783855,48.4698899 113.995442,48.5830887 114.232422,48.6867676 C114.469402,48.7904465 114.712727,48.8962397 114.962402,49.0041504 C115.212078,49.1120611 115.455402,49.2273757 115.692383,49.3500977 C115.929363,49.4728196 116.14095,49.6156405 116.327148,49.7785645 C116.513347,49.9414884 116.663574,50.1298004 116.777832,50.3435059 C116.89209,50.5572114 116.949219,50.8058254 116.949219,51.0893555 C116.949219,51.3771173 116.895264,51.64689 116.787354,51.8986816 C116.679443,52.1504733 116.517579,52.3684073 116.301758,52.5524902 C116.085936,52.7365732 115.814048,52.8815099 115.486084,52.9873047 C115.15812,53.0930995 114.776207,53.1459961 114.340332,53.1459961 C114.141438,53.1459961 113.937257,53.1301271 113.727783,53.0983887 C113.518309,53.0666502 113.306723,53.0052902 113.093018,52.9143066 C112.879312,52.8233231 112.66561,52.6953133 112.451904,52.5302734 C112.238199,52.3652335 112.029786,52.1494154 111.82666,51.8828125 L112.378906,51.3813477 C112.543946,51.6140962 112.702636,51.8119295 112.85498,51.9748535 C113.007325,52.1377775 113.160725,52.271077 113.315186,52.3747559 C113.469646,52.4784348 113.630452,52.5546059 113.797607,52.6032715 C113.964763,52.6519371 114.14567,52.6762695 114.340332,52.6762695 L114.340332,52.6762695 Z M121.944824,52.1303711 C121.762857,52.4435237 121.521649,52.6910798 121.221191,52.8730469 C120.920734,53.0550139 120.550458,53.1459961 120.110352,53.1459961 C119.881835,53.1459961 119.684001,53.1079105 119.516846,53.0317383 C119.34969,52.955566 119.211101,52.8476569 119.101074,52.7080078 C118.991048,52.5683587 118.909587,52.4012054 118.856689,52.206543 C118.803792,52.0118805 118.777344,51.7960624 118.777344,51.559082 L118.777344,46.7539062 L117.59668,46.7539062 L117.59668,46.4174805 C117.977541,46.4174805 118.290689,46.3487149 118.536133,46.2111816 C118.781577,46.0736484 118.982584,45.8874523 119.13916,45.6525879 C119.295736,45.4177234 119.418457,45.1458349 119.507324,44.8369141 C119.596192,44.5279932 119.674479,44.2000343 119.742188,43.8530273 L120.129395,43.8530273 L120.129395,46.1826172 L121.65918,46.1826172 L121.65918,46.7539062 L120.129395,46.7539062 L120.129395,51.559082 C120.129395,51.660645 120.148437,51.7558589 120.186523,51.8447266 C120.22461,51.9335942 120.276448,52.0108232 120.342041,52.076416 C120.407634,52.1420088 120.485921,52.1938475 120.576904,52.2319336 C120.667888,52.2700197 120.76416,52.2890625 120.865723,52.2890625 C121.018067,52.2890625 121.156656,52.2520349 121.281494,52.1779785 C121.406332,52.1039222 121.515299,52.0118821 121.608398,51.9018555 L121.944824,52.1303711 Z M122.541504,54.8725586 C122.74463,54.8175453 122.934,54.7382004 123.109619,54.6345215 C123.285239,54.5308426 123.438639,54.4123542 123.569824,54.2790527 C123.70101,54.1457513 123.804687,54.0008146 123.880859,53.8442383 C123.957032,53.687662 123.995117,53.5268563 123.995117,53.3618164 C123.995117,53.2644852 123.976074,53.1798506 123.937988,53.1079102 C123.899902,53.0359697 123.851237,53 123.791992,53 C123.736979,53 123.69043,53.0105793 123.652344,53.0317383 C123.614258,53.0528972 123.575114,53.0772297 123.534912,53.1047363 C123.49471,53.132243 123.449219,53.1565754 123.398438,53.1777344 C123.347656,53.1988933 123.279948,53.2094727 123.195313,53.2094727 C123.106445,53.2094727 123.022868,53.1904299 122.94458,53.1523438 C122.866292,53.1142576 122.796468,53.061361 122.735107,52.9936523 C122.673746,52.9259437 122.626139,52.8465988 122.592285,52.7556152 C122.558431,52.6646317 122.541504,52.5641282 122.541504,52.4541016 C122.541504,52.3398432 122.564778,52.23405 122.611328,52.1367188 C122.657878,52.0393875 122.722412,51.953695 122.804932,51.8796387 C122.887452,51.8055823 122.983723,51.748454 123.09375,51.708252 C123.203777,51.6680499 123.322265,51.6479492 123.449219,51.6479492 C123.614259,51.6479492 123.767659,51.6839189 123.909424,51.7558594 C124.051189,51.8277998 124.174967,51.9272455 124.280762,52.0541992 C124.386557,52.181153 124.470133,52.3292635 124.531494,52.4985352 C124.592855,52.6678068 124.623535,52.8476553 124.623535,53.0380859 C124.623535,53.3385432 124.567465,53.6157214 124.455322,53.8696289 C124.34318,54.1235364 124.191895,54.3446442 124.001465,54.532959 C123.811034,54.7212737 123.589926,54.872558 123.338135,54.9868164 C123.086343,55.1010748 122.820802,55.1666666 122.541504,55.1835938 L122.541504,54.8725586 Z M129.955566,46.1826172 L131.307617,46.1826172 L131.307617,47.5727539 C131.443035,47.3992504 131.594319,47.2225758 131.761475,47.0427246 C131.92863,46.8628734 132.113769,46.698894 132.316895,46.5507812 C132.520021,46.4026685 132.743244,46.2810063 132.986572,46.185791 C133.2299,46.0905757 133.497557,46.0429688 133.789551,46.0429688 C134.191571,46.0429688 134.557616,46.1276033 134.887695,46.296875 C135.217775,46.4661467 135.499185,46.695718 135.731934,46.9855957 C135.964682,47.2754735 136.144531,47.6150697 136.271484,48.0043945 C136.398438,48.3937194 136.461914,48.8084288 136.461914,49.2485352 C136.461914,49.8113635 136.383627,50.3308082 136.227051,50.8068848 C136.070474,51.2829614 135.848309,51.694497 135.560547,52.0415039 C135.272785,52.3885108 134.923667,52.6593415 134.513184,52.8540039 C134.1027,53.0486663 133.641441,53.1459961 133.129395,53.1459961 C132.938964,53.1459961 132.763347,53.1364747 132.602539,53.1174316 C132.441731,53.0983886 132.288331,53.0687665 132.142334,53.0285645 C131.996337,52.9883624 131.855632,52.9365238 131.720215,52.8730469 C131.584798,52.80957 131.447266,52.7333989 131.307617,52.6445312 L131.307617,55.8754883 L129.955566,55.8754883 L129.955566,46.1826172 Z M131.307617,51.1591797 C131.307617,51.3623057 131.35205,51.5548494 131.440918,51.7368164 C131.529786,51.9187835 131.654622,52.0764153 131.81543,52.2097168 C131.976238,52.3430182 132.168781,52.4488115 132.393066,52.5270996 C132.617351,52.6053878 132.862792,52.6445312 133.129395,52.6445312 C133.383302,52.6445312 133.621337,52.5799974 133.843506,52.4509277 C134.065675,52.3218581 134.260334,52.1388358 134.42749,51.9018555 C134.594646,51.6648751 134.72583,51.3824072 134.821045,51.0544434 C134.91626,50.7264795 134.963867,50.3614929 134.963867,49.9594727 C134.963867,49.4558894 134.919434,49.0168476 134.830566,48.642334 C134.741699,48.2678204 134.617921,47.9557304 134.459229,47.7060547 C134.300536,47.456379 134.113282,47.2701829 133.897461,47.1474609 C133.68164,47.024739 133.444663,46.9633789 133.186523,46.9633789 C132.987629,46.9633789 132.798259,46.9940589 132.618408,47.0554199 C132.438557,47.1167809 132.269288,47.1982417 132.110596,47.2998047 C131.951904,47.4013677 131.804851,47.5187982 131.669434,47.6520996 C131.534016,47.7854011 131.413412,47.9239902 131.307617,48.0678711 L131.307617,51.1591797 Z M142.752441,53 L141.394043,53 L141.394043,52.0668945 C141.233235,52.1896165 141.075603,52.3144525 140.921143,52.4414062 C140.766682,52.56836 140.599529,52.6847325 140.419678,52.7905273 C140.239827,52.8963221 140.040935,52.9820146 139.822998,53.0476074 C139.605061,53.1132002 139.352215,53.1459961 139.064453,53.1459961 C138.79785,53.1459961 138.556642,53.1026209 138.34082,53.0158691 C138.124999,52.9291174 137.940919,52.8095711 137.788574,52.6572266 C137.63623,52.5048821 137.519857,52.3250336 137.439453,52.1176758 C137.359049,51.910318 137.318848,51.6860364 137.318848,51.4448242 C137.318848,51.1528306 137.377034,50.8894055 137.493408,50.654541 C137.609782,50.4196766 137.768472,50.2091481 137.969482,50.0229492 C138.170493,49.8367504 138.405353,49.671713 138.674072,49.527832 C138.942791,49.3839511 139.227375,49.2548834 139.527832,49.140625 C139.828289,49.0263666 140.138263,48.9248051 140.457764,48.8359375 C140.777264,48.7470699 141.089354,48.6645512 141.394043,48.5883789 L141.394043,48.1630859 C141.394043,47.8541651 141.363363,47.5928559 141.302002,47.3791504 C141.240641,47.1654449 141.152833,46.993002 141.038574,46.8618164 C140.924316,46.7306309 140.785727,46.6364749 140.622803,46.5793457 C140.459879,46.5222165 140.276856,46.4936523 140.07373,46.4936523 C139.845214,46.4936523 139.659018,46.5232744 139.515137,46.5825195 C139.371256,46.6417646 139.258057,46.7200516 139.175537,46.8173828 C139.093017,46.914714 139.036947,47.0257969 139.007324,47.1506348 C138.977702,47.2754726 138.962891,47.4013666 138.962891,47.5283203 C138.962891,47.6468105 138.953369,47.7610672 138.934326,47.8710938 C138.915283,47.9811203 138.880371,48.0773922 138.82959,48.1599121 C138.778808,48.2424321 138.710043,48.3090818 138.623291,48.3598633 C138.536539,48.4106448 138.425456,48.4360352 138.290039,48.4360352 C138.184244,48.4360352 138.087972,48.4159344 138.001221,48.3757324 C137.914469,48.3355304 137.839356,48.27946 137.775879,48.2075195 C137.712402,48.1355791 137.663737,48.0509445 137.629883,47.9536133 C137.596028,47.8562821 137.579102,47.7504889 137.579102,47.6362305 C137.579102,47.4119455 137.653157,47.2024749 137.80127,47.0078125 C137.949382,46.8131501 138.148273,46.6449389 138.397949,46.5031738 C138.647625,46.3614088 138.939614,46.249268 139.273926,46.166748 C139.608237,46.0842281 139.959471,46.0429688 140.327637,46.0429688 C140.776207,46.0429688 141.154946,46.086344 141.463867,46.1730957 C141.772788,46.2598474 142.02246,46.3815096 142.212891,46.5380859 C142.403321,46.6946622 142.540852,46.88509 142.625488,47.109375 C142.710124,47.33366 142.752441,47.5812161 142.752441,47.8520508 L142.752441,53 Z M141.394043,49.0263672 C141.199381,49.0898441 140.997316,49.1617835 140.787842,49.2421875 C140.578368,49.3225915 140.373129,49.4125158 140.172119,49.5119629 C139.971109,49.61141 139.779623,49.7193191 139.597656,49.8356934 C139.415689,49.9520676 139.255941,50.0758457 139.118408,50.2070312 C138.980875,50.3382168 138.871908,50.4778638 138.791504,50.6259766 C138.7111,50.7740893 138.670898,50.9285474 138.670898,51.0893555 C138.670898,51.2543954 138.701578,51.4120272 138.762939,51.5622559 C138.8243,51.7124845 138.905761,51.8436681 139.007324,51.9558105 C139.108887,52.067953 139.226318,52.1568193 139.359619,52.2224121 C139.492921,52.2880049 139.63151,52.3208008 139.775391,52.3208008 C139.927735,52.3208008 140.072672,52.3007001 140.210205,52.260498 C140.347738,52.220296 140.481038,52.1663415 140.610107,52.0986328 C140.739177,52.0309241 140.868245,51.9515792 140.997314,51.8605957 C141.126384,51.7696122 141.258626,51.6733404 141.394043,51.5717773 L141.394043,49.0263672 Z M143.8125,46.1889648 L145.35498,46.1889648 L147.989258,51.1083984 L150.134766,46.1889648 L150.858398,46.1889648 L147.379883,54.1933594 C147.23177,54.5276709 147.062501,54.8175443 146.87207,55.0629883 C146.68164,55.3084322 146.479575,55.5104973 146.265869,55.6691895 C146.052164,55.8278817 145.833172,55.9463701 145.608887,56.0246582 C145.384602,56.1029464 145.164552,56.1420898 144.94873,56.1420898 C144.800618,56.1420898 144.659913,56.1230471 144.526611,56.0849609 C144.39331,56.0468748 144.276937,55.9929203 144.17749,55.9230957 C144.078043,55.8532711 143.999756,55.7696945 143.942627,55.6723633 C143.885498,55.5750321 143.856934,55.4692389 143.856934,55.3549805 C143.856934,55.261881 143.875976,55.1698409 143.914062,55.0788574 C143.952149,54.9878739 144.006103,54.908529 144.075928,54.8408203 C144.145752,54.7731116 144.230387,54.7180992 144.329834,54.6757812 C144.429281,54.6334633 144.540364,54.6123047 144.663086,54.6123047 C144.806967,54.6123047 144.920166,54.6281737 145.002686,54.6599121 C145.085205,54.6916505 145.160319,54.7276202 145.228027,54.7678223 C145.295736,54.8080243 145.367675,54.843994 145.443848,54.8757324 C145.52002,54.9074709 145.623697,54.9233398 145.754883,54.9233398 C145.894532,54.9233398 146.019368,54.8831384 146.129395,54.8027344 C146.239421,54.7223303 146.338867,54.6218268 146.427734,54.5012207 C146.516602,54.3806146 146.594889,54.2483731 146.662598,54.1044922 C146.730306,53.9606113 146.791666,53.8273118 146.84668,53.7045898 L147.303711,52.6826172 L143.8125,46.1889648 Z M160.341797,52.3334961 C160.185221,52.4604499 160.015951,52.5736486 159.833984,52.6730957 C159.652017,52.7725428 159.462647,52.8571774 159.265869,52.927002 C159.069091,52.9968265 158.8702,53.0507811 158.669189,53.0888672 C158.468179,53.1269533 158.272462,53.1459961 158.082031,53.1459961 C157.680011,53.1459961 157.304445,53.0528981 156.955322,52.8666992 C156.606199,52.6805004 156.301515,52.4287125 156.04126,52.1113281 C155.781005,51.7939437 155.575766,51.4257833 155.425537,51.0068359 C155.275308,50.5878885 155.200195,50.1456729 155.200195,49.6801758 C155.200195,49.371255 155.243571,49.0665705 155.330322,48.7661133 C155.417074,48.465656 155.537678,48.1810723 155.692139,47.9123535 C155.846599,47.6436347 156.032795,47.3950207 156.250732,47.1665039 C156.46867,46.9379871 156.710936,46.7401538 156.977539,46.572998 C157.244142,46.4058423 157.528726,46.2757166 157.831299,46.1826172 C158.133872,46.0895178 158.450194,46.0429688 158.780273,46.0429688 C159.110353,46.0429688 159.400227,46.101155 159.649902,46.2175293 C159.899578,46.3339036 160.130207,46.4873037 160.341797,46.6777344 L160.341797,43.0786133 L161.287598,42.6914062 L161.6875,42.6914062 L161.6875,53.1459961 L160.341797,53.1459961 L160.341797,52.3334961 Z M160.341797,48.347168 C160.341797,48.0805651 160.292074,47.8361828 160.192627,47.6140137 C160.09318,47.3918446 159.963054,47.2024747 159.802246,47.0458984 C159.641438,46.8893221 159.459474,46.7676599 159.256348,46.6809082 C159.053222,46.5941565 158.847983,46.5507812 158.640625,46.5507812 C158.36979,46.5507812 158.116945,46.6184889 157.88208,46.7539062 C157.647216,46.8893236 157.441977,47.0776355 157.266357,47.3188477 C157.090738,47.5600598 156.952149,47.8488753 156.850586,48.1853027 C156.749023,48.5217302 156.698242,48.8909485 156.698242,49.2929688 C156.698242,49.7246115 156.754313,50.1297995 156.866455,50.5085449 C156.978598,50.8872903 157.131998,51.2173651 157.32666,51.4987793 C157.521323,51.7801935 157.748778,52.0023592 158.009033,52.1652832 C158.269288,52.3282072 158.547525,52.409668 158.84375,52.409668 C158.987631,52.409668 159.130452,52.3906252 159.272217,52.3525391 C159.413982,52.3144529 159.549397,52.2636722 159.678467,52.2001953 C159.807536,52.1367184 159.929199,52.0626632 160.043457,51.9780273 C160.157715,51.8933915 160.257161,51.8045252 160.341797,51.7114258 L160.341797,48.347168 Z M163.998047,42.6914062 C164.103842,42.6914062 164.204345,42.7093911 164.299561,42.7453613 C164.394776,42.7813316 164.477295,42.8299964 164.547119,42.8913574 C164.616944,42.9527184 164.673014,43.0246578 164.715332,43.1071777 C164.75765,43.1896977 164.778809,43.277506 164.778809,43.3706055 C164.778809,43.4637049 164.75765,43.5515133 164.715332,43.6340332 C164.673014,43.7165531 164.616944,43.7884925 164.547119,43.8498535 C164.477295,43.9112145 164.394776,43.9598794 164.299561,43.9958496 C164.204345,44.0318198 164.103842,44.0498047 163.998047,44.0498047 C163.892252,44.0498047 163.792806,44.0318198 163.699707,43.9958496 C163.606608,43.9598794 163.525147,43.9112145 163.455322,43.8498535 C163.385498,43.7884925 163.329427,43.7165531 163.287109,43.6340332 C163.244791,43.5515133 163.223633,43.4637049 163.223633,43.3706055 C163.223633,43.277506 163.244791,43.1896977 163.287109,43.1071777 C163.329427,43.0246578 163.385498,42.9527184 163.455322,42.8913574 C163.525147,42.8299964 163.606608,42.7813316 163.699707,42.7453613 C163.792806,42.7093911 163.892252,42.6914062 163.998047,42.6914062 L163.998047,42.6914062 Z M163.337891,46.4301758 L164.290039,46.0429688 L164.683594,46.0429688 L164.683594,53 L163.337891,53 L163.337891,46.4301758 Z M170.339355,46.1826172 L170.339355,46.7539062 L168.517578,46.7539062 L168.517578,53 L167.15918,53 L167.15918,46.7539062 L165.730957,46.7539062 L165.730957,46.1826172 L167.15918,46.1826172 L167.15918,45.3828125 C167.15918,45.0104148 167.225829,44.6602393 167.359131,44.3322754 C167.492432,44.0043115 167.673339,43.7186698 167.901855,43.4753418 C168.130372,43.2320138 168.399087,43.040528 168.708008,42.9008789 C169.016929,42.7612298 169.347003,42.6914062 169.698242,42.6914062 C169.998699,42.6914062 170.266356,42.7220863 170.501221,42.7834473 C170.736085,42.8448082 170.933918,42.927327 171.094727,43.0310059 C171.255535,43.1346848 171.378255,43.2574049 171.462891,43.3991699 C171.547526,43.540935 171.589844,43.6922192 171.589844,43.8530273 C171.589844,43.9545904 171.570801,44.0445146 171.532715,44.1228027 C171.494629,44.2010909 171.443848,44.2677406 171.380371,44.3227539 C171.316894,44.3777672 171.242839,44.4200845 171.158203,44.449707 C171.073567,44.4793296 170.984701,44.4941406 170.891602,44.4941406 C170.726562,44.4941406 170.600668,44.4624027 170.513916,44.3989258 C170.427164,44.3354489 170.360515,44.2550461 170.313965,44.1577148 C170.267415,44.0603836 170.230388,43.9556483 170.202881,43.8435059 C170.175374,43.7313634 170.136231,43.6266281 170.085449,43.5292969 C170.034668,43.4319657 169.96167,43.3515628 169.866455,43.2880859 C169.77124,43.2246091 169.634767,43.1928711 169.457031,43.1928711 C169.321614,43.1928711 169.19572,43.2320146 169.079346,43.3103027 C168.962971,43.3885909 168.863526,43.4912103 168.781006,43.6181641 C168.698486,43.7451178 168.633952,43.8911125 168.587402,44.0561523 C168.540853,44.2211922 168.517578,44.3904614 168.517578,44.5639648 L168.517578,46.1826172 L170.339355,46.1826172 Z M175.455566,46.1826172 L175.455566,46.7539062 L173.633789,46.7539062 L173.633789,53 L172.275391,53 L172.275391,46.7539062 L170.847168,46.7539062 L170.847168,46.1826172 L172.275391,46.1826172 L172.275391,45.3828125 C172.275391,45.0104148 172.34204,44.6602393 172.475342,44.3322754 C172.608643,44.0043115 172.78955,43.7186698 173.018066,43.4753418 C173.246583,43.2320138 173.515298,43.040528 173.824219,42.9008789 C174.13314,42.7612298 174.463214,42.6914062 174.814453,42.6914062 C175.11491,42.6914062 175.382567,42.7220863 175.617432,42.7834473 C175.852296,42.8448082 176.050129,42.927327 176.210938,43.0310059 C176.371746,43.1346848 176.494466,43.2574049 176.579102,43.3991699 C176.663737,43.540935 176.706055,43.6922192 176.706055,43.8530273 C176.706055,43.9545904 176.687012,44.0445146 176.648926,44.1228027 C176.61084,44.2010909 176.560059,44.2677406 176.496582,44.3227539 C176.433105,44.3777672 176.35905,44.4200845 176.274414,44.449707 C176.189778,44.4793296 176.100912,44.4941406 176.007812,44.4941406 C175.842773,44.4941406 175.716879,44.4624027 175.630127,44.3989258 C175.543375,44.3354489 175.476725,44.2550461 175.430176,44.1577148 C175.383626,44.0603836 175.346598,43.9556483 175.319092,43.8435059 C175.291585,43.7313634 175.252442,43.6266281 175.20166,43.5292969 C175.150879,43.4319657 175.077881,43.3515628 174.982666,43.2880859 C174.887451,43.2246091 174.750977,43.1928711 174.573242,43.1928711 C174.437825,43.1928711 174.311931,43.2320146 174.195557,43.3103027 C174.079182,43.3885909 173.979737,43.4912103 173.897217,43.6181641 C173.814697,43.7451178 173.750163,43.8911125 173.703613,44.0561523 C173.657064,44.2211922 173.633789,44.3904614 173.633789,44.5639648 L173.633789,46.1826172 L175.455566,46.1826172 Z M179.587891,53.1459961 C179.126625,53.1459961 178.693931,53.0592457 178.289795,52.8857422 C177.885659,52.7122387 177.532309,52.4763199 177.229736,52.1779785 C176.927163,51.8796372 176.688071,51.5305196 176.512451,51.1306152 C176.336832,50.7307109 176.249023,50.3022484 176.249023,49.8452148 C176.249023,49.2993137 176.329426,48.7936221 176.490234,48.328125 C176.651042,47.8626279 176.87744,47.4606137 177.169434,47.1220703 C177.461427,46.783527 177.813719,46.5190439 178.226318,46.3286133 C178.638918,46.1381826 179.097003,46.0429688 179.600586,46.0429688 C180.049156,46.0429688 180.459634,46.1212557 180.832031,46.277832 C181.204429,46.4344083 181.523924,46.6449368 181.790527,46.9094238 C182.05713,47.1739108 182.264485,47.4796532 182.412598,47.8266602 C182.56071,48.1736671 182.634766,48.5375958 182.634766,48.918457 L177.550293,48.918457 C177.550293,49.3754906 177.609537,49.7997214 177.728027,50.1911621 C177.846518,50.5826029 178.011555,50.9200832 178.223145,51.2036133 C178.434734,51.4871433 178.688638,51.7093091 178.984863,51.8701172 C179.281089,52.0309253 179.604816,52.1113281 179.956055,52.1113281 C180.25228,52.1113281 180.535806,52.0637212 180.806641,51.9685059 C181.077475,51.8732905 181.322916,51.7484545 181.542969,51.5939941 C181.763022,51.4395337 181.950276,51.2618011 182.104736,51.060791 C182.259197,50.8597809 182.368164,50.6534841 182.431641,50.4418945 L182.818848,50.6132812 C182.721516,50.96452 182.563885,51.2935369 182.345947,51.6003418 C182.12801,51.9071467 181.874106,52.1748035 181.584229,52.4033203 C181.294351,52.6318371 180.976971,52.8127435 180.63208,52.9460449 C180.287189,53.0793464 179.939129,53.1459961 179.587891,53.1459961 L179.587891,53.1459961 Z M180.939941,48.3725586 C180.939941,48.1144193 180.89445,47.8742687 180.803467,47.6520996 C180.712483,47.4299305 180.587647,47.2373869 180.428955,47.0744629 C180.270263,46.9115389 180.084067,46.7835291 179.870361,46.6904297 C179.656656,46.5973303 179.427085,46.5507812 179.181641,46.5507812 C178.978515,46.5507812 178.782797,46.5973303 178.594482,46.6904297 C178.406168,46.7835291 178.239014,46.910481 178.093018,47.0712891 C177.947021,47.2320972 177.826416,47.4235829 177.731201,47.645752 C177.635986,47.867921 177.5778,48.1080716 177.556641,48.3662109 L180.939941,48.3725586 Z M184.088379,46.1826172 L185.434082,46.1826172 L185.434082,47.4711914 C185.565268,47.2807608 185.70703,47.0987964 185.859375,46.925293 C186.01172,46.7517895 186.170409,46.5994473 186.335449,46.4682617 C186.500489,46.3370762 186.670816,46.2333988 186.846436,46.1572266 C187.022055,46.0810543 187.200845,46.0429688 187.382812,46.0429688 C187.530925,46.0429688 187.668456,46.0651853 187.79541,46.1096191 C187.922364,46.154053 188.033447,46.2132972 188.128662,46.2873535 C188.223877,46.3614099 188.298991,46.4481603 188.354004,46.5476074 C188.409017,46.6470545 188.436523,46.7517898 188.436523,46.8618164 C188.436523,47.0818696 188.367758,47.2479649 188.230225,47.3601074 C188.092691,47.4722499 187.901206,47.5283203 187.655762,47.5283203 C187.503417,47.5283203 187.381755,47.5124513 187.290771,47.4807129 C187.199788,47.4489745 187.117269,47.4130048 187.043213,47.3728027 C186.969157,47.3326007 186.894043,47.296631 186.817871,47.2648926 C186.741699,47.2331541 186.646485,47.2172852 186.532227,47.2172852 C186.443359,47.2172852 186.353435,47.2437335 186.262451,47.2966309 C186.171468,47.3495283 186.080485,47.4235835 185.989502,47.5187988 C185.898518,47.6140141 185.806478,47.726155 185.713379,47.8552246 C185.620279,47.9842943 185.527181,48.1249992 185.434082,48.2773438 L185.434082,53 L184.088379,53 L184.088379,46.1826172 Z M192.327637,53.1459961 C191.866371,53.1459961 191.433677,53.0592457 191.029541,52.8857422 C190.625405,52.7122387 190.272056,52.4763199 189.969482,52.1779785 C189.666909,51.8796372 189.427817,51.5305196 189.252197,51.1306152 C189.076578,50.7307109 188.98877,50.3022484 188.98877,49.8452148 C188.98877,49.2993137 189.069172,48.7936221 189.22998,48.328125 C189.390789,47.8626279 189.617186,47.4606137 189.90918,47.1220703 C190.201173,46.783527 190.553465,46.5190439 190.966064,46.3286133 C191.378664,46.1381826 191.836749,46.0429688 192.340332,46.0429688 C192.788902,46.0429688 193.19938,46.1212557 193.571777,46.277832 C193.944175,46.4344083 194.263671,46.6449368 194.530273,46.9094238 C194.796876,47.1739108 195.004231,47.4796532 195.152344,47.8266602 C195.300456,48.1736671 195.374512,48.5375958 195.374512,48.918457 L190.290039,48.918457 C190.290039,49.3754906 190.349283,49.7997214 190.467773,50.1911621 C190.586264,50.5826029 190.751301,50.9200832 190.962891,51.2036133 C191.17448,51.4871433 191.428384,51.7093091 191.724609,51.8701172 C192.020835,52.0309253 192.344562,52.1113281 192.695801,52.1113281 C192.992026,52.1113281 193.275552,52.0637212 193.546387,51.9685059 C193.817221,51.8732905 194.062662,51.7484545 194.282715,51.5939941 C194.502768,51.4395337 194.690022,51.2618011 194.844482,51.060791 C194.998943,50.8597809 195.10791,50.6534841 195.171387,50.4418945 L195.558594,50.6132812 C195.461263,50.96452 195.303631,51.2935369 195.085693,51.6003418 C194.867756,51.9071467 194.613852,52.1748035 194.323975,52.4033203 C194.034097,52.6318371 193.716717,52.8127435 193.371826,52.9460449 C193.026935,53.0793464 192.678875,53.1459961 192.327637,53.1459961 L192.327637,53.1459961 Z M193.679688,48.3725586 C193.679688,48.1144193 193.634196,47.8742687 193.543213,47.6520996 C193.452229,47.4299305 193.327393,47.2373869 193.168701,47.0744629 C193.010009,46.9115389 192.823813,46.7835291 192.610107,46.6904297 C192.396402,46.5973303 192.166831,46.5507812 191.921387,46.5507812 C191.718261,46.5507812 191.522543,46.5973303 191.334229,46.6904297 C191.145914,46.7835291 190.97876,46.910481 190.832764,47.0712891 C190.686767,47.2320972 190.566163,47.4235829 190.470947,47.645752 C190.375732,47.867921 190.317546,48.1080716 190.296387,48.3662109 L193.679688,48.3725586 Z M196.828125,46.1826172 L198.180176,46.1826172 L198.180176,47.4267578 C198.59066,46.9654925 199.018064,46.6195487 199.462402,46.388916 C199.906741,46.1582834 200.359535,46.0429688 200.820801,46.0429688 C201.057781,46.0429688 201.281005,46.0969233 201.490479,46.204834 C201.699952,46.3127447 201.881917,46.4597972 202.036377,46.6459961 C202.190837,46.8321949 202.313557,47.0511869 202.404541,47.3029785 C202.495525,47.5547701 202.541016,47.822427 202.541016,48.105957 L202.541016,53 L201.182617,53 L201.182617,48.3344727 C201.182617,47.8859027 201.081056,47.5452486 200.87793,47.3125 C200.674804,47.0797514 200.414552,46.9633789 200.097168,46.9633789 C199.953287,46.9633789 199.800945,46.9866534 199.640137,47.0332031 C199.479329,47.0797528 199.316407,47.1464026 199.151367,47.2331543 C198.986327,47.319906 198.82129,47.4235834 198.65625,47.5441895 C198.49121,47.6647955 198.33252,47.7991529 198.180176,47.9472656 L198.180176,53 L196.828125,53 L196.828125,46.1826172 Z M207.727051,52.1303711 C207.545084,52.4435237 207.303875,52.6910798 207.003418,52.8730469 C206.702961,53.0550139 206.332684,53.1459961 205.892578,53.1459961 C205.664061,53.1459961 205.466228,53.1079105 205.299072,53.0317383 C205.131916,52.955566 204.993327,52.8476569 204.883301,52.7080078 C204.773274,52.5683587 204.691813,52.4012054 204.638916,52.206543 C204.586019,52.0118805 204.55957,51.7960624 204.55957,51.559082 L204.55957,46.7539062 L203.378906,46.7539062 L203.378906,46.4174805 C203.759768,46.4174805 204.072915,46.3487149 204.318359,46.2111816 C204.563803,46.0736484 204.76481,45.8874523 204.921387,45.6525879 C205.077963,45.4177234 205.200683,45.1458349 205.289551,44.8369141 C205.378418,44.5279932 205.456705,44.2000343 205.524414,43.8530273 L205.911621,43.8530273 L205.911621,46.1826172 L207.441406,46.1826172 L207.441406,46.7539062 L205.911621,46.7539062 L205.911621,51.559082 C205.911621,51.660645 205.930664,51.7558589 205.96875,51.8447266 C206.006836,51.9335942 206.058675,52.0108232 206.124268,52.076416 C206.18986,52.1420088 206.268147,52.1938475 206.359131,52.2319336 C206.450114,52.2700197 206.546386,52.2890625 206.647949,52.2890625 C206.800294,52.2890625 206.938883,52.2520349 207.063721,52.1779785 C207.188559,52.1039222 207.297526,52.0118821 207.390625,51.9018555 L207.727051,52.1303711 Z" id="pay-secure,-pay-fast" fill="#FFFFFF" sketch:type="MSShapeGroup"></path>
        </g>
    </g>
</svg>